<svg width="22" height="22" viewBox="0 0 22 22" fill="none" xmlns="http://www.w3.org/2000/svg">
<path d="M15.42 6.95012C17.86 9.39012 17.86 13.3501 15.42 15.7901C12.98 18.2301 9.02 18.2301 6.58 15.7901C4.14 13.3501 4.14 9.39012 6.58 6.95012C9.02 4.51012 12.98 4.51012 15.42 6.95012Z" stroke="#004F95" stroke-width="2" stroke-linecap="round" stroke-linejoin="round"/>
<path d="M7.24999 20.6399C5.24999 19.8399 3.49999 18.3899 2.33999 16.3799C1.19999 14.4099 0.819991 12.2199 1.08999 10.1299" stroke="#004F95" stroke-width="2" stroke-linecap="round" stroke-linejoin="round"/>
<path d="M4.84998 3.47986C6.54998 2.14986 8.67997 1.35986 11 1.35986C13.27 1.35986 15.36 2.12985 17.04 3.40985" stroke="#004F95" stroke-width="2" stroke-linecap="round" stroke-linejoin="round"/>
<path d="M14.75 20.6399C16.75 19.8399 18.5 18.3899 19.66 16.3799C20.8 14.4099 21.18 12.2199 20.91 10.1299" stroke="#004F95" stroke-width="2" stroke-linecap="round" stroke-linejoin="round"/>
</svg>
