<svg width="24" height="24" viewBox="0 0 24 24" fill="none" xmlns="http://www.w3.org/2000/svg">
<path d="M13.2 21.37C12.54 22.25 11.46 22.25 10.8 21.37L9.3 19.37C9.13 19.15 8.77 18.97 8.5 18.97H8C4 18.97 2 17.97 2 12.97V7.97C2 3.97 4 1.97 8 1.97H16C20 1.97 22 3.97 22 7.97V12.97" stroke="#212526" stroke-width="2" stroke-miterlimit="10" stroke-linecap="round" stroke-linejoin="round"/>
<path d="M22 22L21 21M15.996 11H16.006M11.995 11H12.005M7.995 11H8.003M18.2 21.4C19.0487 21.4 19.8626 21.0629 20.4627 20.4627C21.0629 19.8626 21.4 19.0487 21.4 18.2C21.4 17.3513 21.0629 16.5374 20.4627 15.9373C19.8626 15.3371 19.0487 15 18.2 15C17.3513 15 16.5374 15.3371 15.9373 15.9373C15.3371 16.5374 15 17.3513 15 18.2C15 19.0487 15.3371 19.8626 15.9373 20.4627C16.5374 21.0629 17.3513 21.4 18.2 21.4Z" stroke="#212526" stroke-width="2" stroke-linecap="round" stroke-linejoin="round"/>
</svg>
